<?xml version="1.0" encoding="UTF-8" standalone="no"?>
<!-- Created with Inkscape (http://www.inkscape.org/) -->

<svg
   version="1.1"
   id="svg95"
   width="572"
   height="572"
   viewBox="0 0 572 572"
   sodipodi:docname="original-seal.svg"
   inkscape:version="1.1 (c68e22c387, 2021-05-23)"
   xmlns:inkscape="http://www.inkscape.org/namespaces/inkscape"
   xmlns:sodipodi="http://sodipodi.sourceforge.net/DTD/sodipodi-0.dtd"
   xmlns="http://www.w3.org/2000/svg"
   xmlns:svg="http://www.w3.org/2000/svg">
  <defs
     id="defs99" />
  <sodipodi:namedview
     id="namedview97"
     pagecolor="#505050"
     bordercolor="#eeeeee"
     borderopacity="1"
     inkscape:pageshadow="0"
     inkscape:pageopacity="0"
     inkscape:pagecheckerboard="0"
     showgrid="false"
     inkscape:zoom="0.035662476"
     inkscape:cx="7585.0034"
     inkscape:cy="4136"
     inkscape:window-width="1600"
     inkscape:window-height="837"
     inkscape:window-x="1358"
     inkscape:window-y="-8"
     inkscape:window-maximized="1"
     inkscape:current-layer="g101"
     showguides="false" />
  <g
     inkscape:groupmode="layer"
     inkscape:label="Image"
     id="g101">
    <g
       id="g321"
       transform="matrix(14.0625,0,0,14.064961,-328.83125,1.1675195)">
      <path
         style="fill:#f7cfcf"
         d="m 208.8125,520.31689 c 0.72187,-0.28887 1.58437,-0.25335 1.91667,0.0789 0.33229,0.33229 -0.25834,0.56864 -1.3125,0.52522 -1.16495,-0.048 -1.4019,-0.28494 -0.60417,-0.60416 z M 255.19495,510.5 c 0.0204,-1.65 0.2445,-2.20394 0.49804,-1.23097 0.25354,0.97297 0.23687,2.32297 -0.0371,3 -0.27393,0.67703 -0.48137,-0.11903 -0.46099,-1.76903 z m 150.884,-7.08333 c 0.048,-1.16495 0.28494,-1.4019 0.60416,-0.60417 0.28887,0.72187 0.25335,1.58438 -0.0789,1.91667 -0.33229,0.33229 -0.56864,-0.25834 -0.52522,-1.3125 z m 43.23933,-16.16589 c 12.55005,-0.15877 32.80005,-0.15859 45,4e-4 12.19995,0.159 1.93172,0.2889 -22.81828,0.28869 -24.75,-2.2e-4 -34.73177,-0.13031 -22.18172,-0.28909 z M 55.354955,475.5 c -0.003,-4.95 0.166052,-7.10108 0.375776,-4.78017 0.209724,2.3209 0.212217,6.3709 0.0055,9 -0.206677,2.62909 -0.378269,0.73017 -0.381317,-4.21983 z m 145.406705,-9.20726 c 1.24391,-0.23919 3.04391,-0.23011 4,0.0202 0.95609,0.25029 -0.0617,0.446 -2.26166,0.4349 -2.2,-0.0111 -2.98225,-0.21589 -1.73834,-0.45508 z m 125.98834,0.002 c 1.2375,-0.23836 3.2625,-0.23836 4.5,0 1.2375,0.23835 0.225,0.43337 -2.25,0.43337 -2.475,0 -3.4875,-0.19502 -2.25,-0.43337 z m 28.51375,-0.0118 c 1.52006,-0.22986 3.77006,-0.22371 5,0.0136 1.22994,0.23736 -0.0138,0.42542 -2.76375,0.41792 -2.75,-0.008 -3.75631,-0.20172 -2.23625,-0.43157 z m 94.05453,-0.0316 c 12.55005,-0.15877 32.80005,-0.15859 45,4e-4 12.19995,0.159 1.93172,0.2889 -22.81828,0.28869 -24.75,-2.2e-4 -34.73177,-0.13031 -22.18172,-0.28909 z M 374.35496,443.5 c -0.003,-4.95 0.16605,-7.10108 0.37577,-4.78017 0.20972,2.3209 0.21222,6.3709 0.006,9 -0.20667,2.62909 -0.37827,0.73017 -0.38131,-4.21983 z m -173.5933,1.79274 c 1.24391,-0.23919 3.04391,-0.23011 4,0.0202 0.95609,0.25029 -0.0617,0.446 -2.26166,0.4349 -2.2,-0.0111 -2.98225,-0.21589 -1.73834,-0.45508 z m 193.31729,-10.87607 c 0.048,-1.16495 0.28494,-1.4019 0.60416,-0.60417 0.28887,0.72187 0.25335,1.58438 -0.0789,1.91667 -0.33229,0.33229 -0.56864,-0.25834 -0.52522,-1.3125 z M 378,417.62244 c 0,-0.20765 0.7875,-0.99515 1.75,-1.75 1.58606,-1.24387 1.62143,-1.2085 0.37756,0.37756 C 378.82119,417.91575 378,418.44548 378,417.62244 Z M 388.87244,416.25 c -1.24387,-1.58606 -1.2085,-1.62143 0.37756,-0.37756 1.66575,1.30637 2.19548,2.12756 1.37244,2.12756 -0.20765,0 -0.99515,-0.7875 -1.75,-1.75 z M 139.82176,405.25045 c 16.67697,-0.15399 43.67697,-0.15389 60,2.4e-4 16.32303,0.15412 2.67824,0.28012 -30.32176,0.27999 -33,-1.3e-4 -46.35521,-0.12623 -29.67824,-0.28023 z M 426.36523,389.5 c 0.003,-5.5 0.17053,-7.62242 0.37317,-4.71648 0.20265,2.90594 0.20052,7.40594 -0.005,10 -0.20525,2.59406 -0.37104,0.21648 -0.36844,-5.28352 z m 75.9038,2.80701 c 0.97297,-0.25354 2.32297,-0.23687 3,0.0371 0.67703,0.27393 -0.11903,0.48137 -1.76903,0.46099 -1.65,-0.0204 -2.20394,-0.2445 -1.23097,-0.49804 z M 105.75,384.33772 c 0.6875,-0.27741 1.8125,-0.27741 2.5,0 0.6875,0.27741 0.125,0.50439 -1.25,0.50439 -1.375,0 -1.9375,-0.22698 -1.25,-0.50439 z M 531.87244,377.25 c -1.24387,-1.58606 -1.2085,-1.62143 0.37756,-0.37756 1.66575,1.30637 2.19548,2.12756 1.37244,2.12756 -0.20765,0 -0.99515,-0.7875 -1.75,-1.75 z M 374.30987,359.5 c 0.006,-3.3 0.1923,-4.52944 0.41486,-2.73209 0.22256,1.79735 0.21797,4.49735 -0.0102,6 -0.22818,1.50265 -0.41027,0.0321 -0.40466,-3.26791 z M 489.75,359.33772 c 0.6875,-0.27741 1.8125,-0.27741 2.5,0 0.6875,0.27741 0.125,0.50439 -1.25,0.50439 -1.375,0 -1.9375,-0.22698 -1.25,-0.50439 z m -194.67105,-1.92105 c 0.048,-1.16495 0.28494,-1.4019 0.60416,-0.60417 0.28887,0.72187 0.25335,1.58438 -0.0789,1.91667 -0.33229,0.33229 -0.56864,-0.25834 -0.52522,-1.3125 z m -135,-21 c 0.048,-1.16495 0.28494,-1.4019 0.60416,-0.60417 0.28887,0.72187 0.25335,1.58438 -0.0789,1.91667 -0.3323,0.33229 -0.56864,-0.25834 -0.52522,-1.3125 z m -125.000003,-10 c 0.04798,-1.16495 0.284941,-1.4019 0.604167,-0.60417 0.288871,0.72187 0.253344,1.58438 -0.07895,1.91667 -0.332292,0.33229 -0.568641,-0.25834 -0.52522,-1.3125 z m 19,0 c 0.04798,-1.16495 0.284941,-1.4019 0.604167,-0.60417 0.288871,0.72187 0.253344,1.58438 -0.07895,1.91667 -0.332292,0.33229 -0.568641,-0.25834 -0.52522,-1.3125 z M 117.75,321.25228 c 7.8375,-0.16896 20.6625,-0.16896 28.5,0 7.8375,0.16896 1.425,0.3072 -14.25,0.3072 -15.675,0 -22.0875,-0.13824 -14.25,-0.3072 z m 74,7.2e-4 c 6.7375,-0.17301 17.7625,-0.17301 24.5,0 6.7375,0.17301 1.225,0.31456 -12.25,0.31456 -13.475,0 -18.9875,-0.14155 -12.25,-0.31456 z m 259.44097,2.3e-4 c 6.98004,-0.17166 18.68004,-0.17212 26,-10e-4 7.31997,0.17109 1.60903,0.31154 -12.69097,0.31211 -14.3,5.7e-4 -20.28906,-0.13941 -13.30903,-0.31107 z M 100.8125,299.31689 c 0.72187,-0.28887 1.58437,-0.25335 1.91667,0.0789 0.33229,0.33229 -0.25834,0.56864 -1.3125,0.52522 -1.16495,-0.048 -1.4019,-0.28494 -0.60417,-0.60416 z m 131,0 c 0.72187,-0.28887 1.58437,-0.25335 1.91667,0.0789 0.33229,0.33229 -0.25834,0.56864 -1.3125,0.52522 -1.16495,-0.048 -1.4019,-0.28494 -0.60417,-0.60416 z m 204,0 c 0.72187,-0.28887 1.58438,-0.25335 1.91667,0.0789 0.33229,0.33229 -0.25834,0.56864 -1.3125,0.52522 -1.16495,-0.048 -1.4019,-0.28494 -0.60417,-0.60416 z m 56.9375,0.0208 c 0.6875,-0.27741 1.8125,-0.27741 2.5,0 0.6875,0.27741 0.125,0.50439 -1.25,0.50439 -1.375,0 -1.9375,-0.22698 -1.25,-0.50439 z m -415,-18 c 0.6875,-0.27741 1.8125,-0.27741 2.5,0 0.6875,0.27741 0.125,0.50439 -1.25,0.50439 -1.375,0 -1.9375,-0.22698 -1.25,-0.50439 z m 134.0625,-0.0208 c 0.72187,-0.28887 1.58437,-0.25335 1.91667,0.0789 0.33229,0.33229 -0.25834,0.56864 -1.3125,0.52522 -1.16495,-0.048 -1.4019,-0.28494 -0.60417,-0.60416 z m 18.9375,0.0208 c 0.6875,-0.27741 1.8125,-0.27741 2.5,0 0.6875,0.27741 0.125,0.50439 -1.25,0.50439 -1.375,0 -1.9375,-0.22698 -1.25,-0.50439 z m 97.01166,-0.045 c 1.24391,-0.23919 3.04391,-0.23011 4,0.0202 0.95609,0.25029 -0.0617,0.446 -2.26166,0.4349 -2.2,-0.0111 -2.98225,-0.21589 -1.73834,-0.45508 z m -3.94916,-18.97585 c 0.72187,-0.28887 1.58438,-0.25335 1.91667,0.0789 0.33229,0.33229 -0.25834,0.56864 -1.3125,0.52522 -1.16495,-0.048 -1.4019,-0.28494 -0.60417,-0.60416 z M 93,249.62244 c 0,-0.20765 0.7875,-0.99515 1.75,-1.75 1.586056,-1.24387 1.621426,-1.2085 0.377555,0.37756 C 93.821186,249.91575 93,250.44548 93,249.62244 Z m 50.07895,-6.20577 c 0.048,-1.16495 0.28494,-1.4019 0.60416,-0.60417 0.28887,0.72187 0.25335,1.58437 -0.0789,1.91667 -0.3323,0.33229 -0.56864,-0.25834 -0.52522,-1.3125 z m -22,-4 c 0.048,-1.16495 0.28494,-1.4019 0.60416,-0.60417 0.28887,0.72187 0.25335,1.58437 -0.0789,1.91667 -0.3323,0.33229 -0.56864,-0.25834 -0.52522,-1.3125 z m 46,-2 c 0.048,-1.16495 0.28494,-1.4019 0.60416,-0.60417 0.28887,0.72187 0.25335,1.58437 -0.0789,1.91667 -0.3323,0.33229 -0.56864,-0.25834 -0.52522,-1.3125 z M 98.309869,230.5 c 0.0056,-3.3 0.192301,-4.52944 0.414862,-2.73209 0.222562,1.79735 0.217969,4.49735 -0.0102,6 -0.228174,1.50265 -0.41027,0.0321 -0.404657,-3.26791 z M 38.5,231 c 0.995486,-1.1 2.034975,-2 2.309975,-2 0.275,0 -0.314489,0.9 -1.309975,2 -0.995486,1.1 -2.034975,2 -2.309975,2 -0.275,0 0.314489,-0.9 1.309975,-2 z M 50.404988,230.75 48.5,228.5 l 2.25,1.90499 C 52.864445,232.19521 53.455241,233 52.654988,233 c -0.189757,0 -1.202257,-1.0125 -2.25,-2.25 z M 74.75,157.33772 c 0.6875,-0.27741 1.8125,-0.27741 2.5,0 0.6875,0.27741 0.125,0.50439 -1.25,0.50439 -1.375,0 -1.9375,-0.22698 -1.25,-0.50439 z m 159,0 c 0.6875,-0.27741 1.8125,-0.27741 2.5,0 0.6875,0.27741 0.125,0.50439 -1.25,0.50439 -1.375,0 -1.9375,-0.22698 -1.25,-0.50439 z M 74.8125,138.31689 c 0.721875,-0.28887 1.584375,-0.25335 1.916667,0.0789 0.332291,0.33229 -0.258334,0.56864 -1.3125,0.52522 -1.164943,-0.048 -1.4019,-0.28494 -0.604167,-0.60416 z M 35.078947,99.416667 c 0.04798,-1.164943 0.284941,-1.4019 0.604167,-0.604167 0.288871,0.721875 0.253344,1.58437 -0.07895,1.91667 -0.332292,0.33229 -0.568641,-0.25834 -0.52522,-1.312503 z M 98.194949,75.5 c 0.02038,-1.65 0.244498,-2.203936 0.498042,-1.230968 0.253543,0.972967 0.236869,2.322967 -0.03705,3 C 98.382014,77.946064 98.174569,77.15 98.194949,75.5 Z M 468,70.622445 c 0,-0.207656 0.7875,-0.995156 1.75,-1.75 1.58606,-1.243871 1.62143,-1.208501 0.37756,0.377555 C 468.82119,70.915748 468,71.445479 468,70.622445 Z M 476.87244,69.25 C 475.62857,67.663944 475.66394,67.628574 477.25,68.872445 478.91575,70.178814 479.44548,71 478.62244,71 c -0.20765,0 -0.99515,-0.7875 -1.75,-1.75 z M 335.75,61.259603 c 3.4375,-0.195271 9.0625,-0.195271 12.5,0 3.4375,0.195271 0.625,0.355038 -6.25,0.355038 -6.875,0 -9.6875,-0.159767 -6.25,-0.355038 z m 71.51375,0.02282 c 1.52006,-0.229855 3.77006,-0.223712 5,0.01365 1.22994,0.237362 -0.0138,0.425424 -2.76375,0.417917 -2.75,-0.0075 -3.75631,-0.201713 -2.23625,-0.431567 z M 447.25,61.252435 c 7.5625,-0.169881 19.9375,-0.169881 27.5,0 7.5625,0.16988 1.375,0.308873 -13.75,0.308873 -15.125,0 -21.3125,-0.138993 -13.75,-0.308873 z M 219.8125,43.316886 c 0.72187,-0.288871 1.58437,-0.253344 1.91667,0.07895 0.33229,0.332292 -0.25834,0.568641 -1.3125,0.52522 -1.16495,-0.04798 -1.4019,-0.284941 -0.60417,-0.604167 z"
         id="path339" />
      <path
         style="fill:#f4b6b6"
         d="m 315.7277,541.27827 c 1.77523,-0.22091 4.92523,-0.22454 7,-0.008 2.07476,0.21648 0.6223,0.39722 -3.2277,0.40166 -3.85,0.004 -5.54754,-0.17268 -3.7723,-0.39359 z m 145.57424,-0.0244 c 5.39107,-0.18015 13.94107,-0.17936 19,0.002 5.05893,0.18111 0.64806,0.32851 -9.80194,0.32755 -10.45,-9.6e-4 -14.58913,-0.14915 -9.19806,-0.3293 z M 255.43772,481.5 c -5.4e-4,-14.85 0.13863,-21.0644 0.30926,-13.80979 0.17063,7.25462 0.17107,19.40462 9.7e-4,27 -0.17009,7.59539 -0.3097,1.65979 -0.31023,-13.19021 z M 91.823568,466.25032 c 19.977962,-0.15148 52.377962,-0.15141 72.000002,1.7e-4 19.62204,0.15157 3.27643,0.27551 -36.32357,0.27542 -39.6,-1e-4 -55.654394,-0.12411 -35.676432,-0.27559 z M 90.75,445.2504 c 19.9375,-0.15144 52.5625,-0.15144 72.5,0 19.9375,0.15143 3.625,0.27534 -36.25,0.27534 -39.875,0 -56.1875,-0.12391 -36.25,-0.27534 z m 303.32895,-7.83373 c 0.048,-1.16495 0.28494,-1.4019 0.60416,-0.60417 0.28887,0.72187 0.25335,1.58438 -0.0789,1.91667 -0.33229,0.33229 -0.56864,-0.25834 -0.52522,-1.3125 z m 103.19008,-45.10966 c 0.97297,-0.25354 2.32297,-0.23687 3,0.0371 0.67703,0.27393 -0.11903,0.48137 -1.76903,0.46099 -1.65,-0.0204 -2.20394,-0.2445 -1.23097,-0.49804 z M 461.75,359.25493 c 5.0875,-0.18149 13.4125,-0.18149 18.5,0 5.0875,0.18149 0.925,0.32999 -9.25,0.32999 -10.175,0 -14.3375,-0.1485 -9.25,-0.32999 z M 228.8125,321.31689 c 0.72187,-0.28887 1.58437,-0.25335 1.91667,0.0789 0.33229,0.33229 -0.25834,0.56864 -1.3125,0.52522 -1.16495,-0.048 -1.4019,-0.28494 -0.60417,-0.60416 z m 262.4375,-0.006 c 0.9625,-0.25152 2.5375,-0.25152 3.5,0 0.9625,0.25153 0.175,0.45733 -1.75,0.45733 -1.925,0 -2.7125,-0.2058 -1.75,-0.45733 z m -387.5,-21.97295 c 0.6875,-0.27741 1.8125,-0.27741 2.5,0 0.6875,0.27741 0.125,0.50439 -1.25,0.50439 -1.375,0 -1.9375,-0.22698 -1.25,-0.50439 z m 335.51903,-0.0307 c 0.97297,-0.25354 2.32297,-0.23687 3,0.0371 0.67703,0.27393 -0.11903,0.48137 -1.76903,0.46099 -1.65,-0.0204 -2.20394,-0.2445 -1.23097,-0.49804 z M 85.280173,281.26373 c 2.629095,-0.20668 6.679095,-0.20418 9,0.006 2.320905,0.20972 0.169827,0.37882 -4.780173,0.37577 -4.95,-0.003 -6.848922,-0.17464 -4.219827,-0.38131 z m 132.469827,0.004 c 2.3375,-0.21053 6.1625,-0.21053 8.5,0 2.3375,0.21054 0.425,0.3828 -4.25,0.3828 -4.675,0 -6.5875,-0.17226 -4.25,-0.3828 z m 154,-0.0174 c 21.5875,-0.15046 56.9125,-0.15046 78.5,0 21.5875,0.15045 3.925,0.27355 -39.25,0.27355 -43.175,0 -60.8375,-0.1231 -39.25,-0.27355 z M 249,112.62244 c 0,-0.20765 0.7875,-0.99515 1.75,-1.75 1.58606,-1.24387 1.62143,-1.2085 0.37756,0.37756 C 249.82119,112.91575 249,113.44548 249,112.62244 Z M 139.81181,85.251683 c 8.42149,-0.167443 21.92149,-0.167077 30,8.14e-4 C 177.89031,85.420387 171,85.557385 154.5,85.556938 138,85.55649 131.39031,85.419125 139.81181,85.251683 Z"
         id="path337" />
      <path
         style="fill:#f2a7a7"
         d="m 202.75,484.33772 c 0.6875,-0.27741 1.8125,-0.27741 2.5,0 0.6875,0.27741 0.125,0.50439 -1.25,0.50439 -1.375,0 -1.9375,-0.22698 -1.25,-0.50439 z M 394.32007,445 c 0,-3.575 0.1815,-5.0375 0.40333,-3.25 0.22182,1.7875 0.22182,4.7125 0,6.5 -0.22183,1.7875 -0.40333,0.325 -0.40333,-3.25 z M 479.25,392.26101 c 3.1625,-0.19845 8.3375,-0.19845 11.5,0 3.1625,0.19845 0.575,0.36082 -5.75,0.36082 -6.325,0 -8.9125,-0.16237 -5.75,-0.36082 z M 394.30987,362.5 c 0.006,-3.3 0.1923,-4.52944 0.41486,-2.73209 0.22256,1.79735 0.21797,4.49735 -0.0102,6 -0.22818,1.50265 -0.41027,0.0321 -0.40466,-3.26791 z M 231.8125,321.31689 c 0.72187,-0.28887 1.58437,-0.25335 1.91667,0.0789 0.33229,0.33229 -0.25834,0.56864 -1.3125,0.52522 -1.16495,-0.048 -1.4019,-0.28494 -0.60417,-0.60416 z M 107.75,299.33772 c 0.6875,-0.27741 1.8125,-0.27741 2.5,0 0.6875,0.27741 0.125,0.50439 -1.25,0.50439 -1.375,0 -1.9375,-0.22698 -1.25,-0.50439 z m 336,0 c 0.6875,-0.27741 1.8125,-0.27741 2.5,0 0.6875,0.27741 0.125,0.50439 -1.25,0.50439 -1.375,0 -1.9375,-0.22698 -1.25,-0.50439 z m -116,-37 c 0.6875,-0.27741 1.8125,-0.27741 2.5,0 0.6875,0.27741 0.125,0.50439 -1.25,0.50439 -1.375,0 -1.9375,-0.22698 -1.25,-0.50439 z M 414.48108,162 c 0,-55.275 0.12092,-77.8875 0.26871,-50.25 0.14779,27.6375 0.14779,72.8625 0,100.5 -0.14779,27.6375 -0.26871,5.025 -0.26871,-50.25 z M 167.23379,206.28174 167,177.06347 l -11.75,-0.3167 -11.75,-0.3167 11.78138,-0.21504 c 8.72884,-0.15932 11.90695,0.11217 12.26598,1.0478 0.26653,0.69455 0.35761,14.08205 0.20241,29.75 L 167.46758,235.5 Z M 388.4681,143 c 0,-31.625 0.12658,-44.5625 0.28128,-28.75 0.15471,15.8125 0.15471,41.6875 0,57.5 -0.1547,15.8125 -0.28128,2.875 -0.28128,-28.75 z M 88.75,176.25349 c 6.1875,-0.17544 16.3125,-0.17544 22.5,0 6.1875,0.17545 1.125,0.319 -11.25,0.319 -12.375,0 -17.4375,-0.14355 -11.25,-0.319 z m 109.5,-2.6e-4 c 6.4625,-0.17418 17.0375,-0.17418 23.5,0 6.4625,0.17419 1.175,0.3167 -11.75,0.3167 -12.925,0 -18.2125,-0.14251 -11.75,-0.3167 z M 121.26903,85.307009 c 0.97297,-0.253543 2.32297,-0.236869 3,0.03705 0.67703,0.273923 -0.11903,0.481368 -1.76903,0.460988 -1.65,-0.02038 -2.20394,-0.244498 -1.23097,-0.498042 z m 63.48097,0.03071 c 0.6875,-0.277412 1.8125,-0.277412 2.5,0 0.6875,0.277413 0.125,0.504386 -1.25,0.504386 -1.375,0 -1.9375,-0.226973 -1.25,-0.504386 z m 156,-46 c 0.6875,-0.277412 1.8125,-0.277412 2.5,0 0.6875,0.277413 0.125,0.504386 -1.25,0.504386 -1.375,0 -1.9375,-0.226973 -1.25,-0.504386 z"
         id="path335" />
      <path
         style="fill:#ee9090"
         d="m 315.25,522.28375 c 1.5125,-0.22913 3.9875,-0.22913 5.5,0 1.5125,0.22912 0.275,0.41659 -2.75,0.41659 -3.025,0 -4.2625,-0.18747 -2.75,-0.41659 z m 146,-0.0293 c 5.3625,-0.17981 14.1375,-0.17981 19.5,0 5.3625,0.17981 0.975,0.32692 -9.75,0.32692 -10.725,0 -15.1125,-0.14711 -9.75,-0.32692 z m -260.48834,-1.96176 c 1.24391,-0.23919 3.04391,-0.23011 4,0.0202 0.95609,0.25029 -0.0617,0.446 -2.26166,0.4349 -2.2,-0.0111 -2.98225,-0.21589 -1.73834,-0.45508 z M 92.25,484.25038 c 20.2125,-0.15126 53.2875,-0.15126 73.5,0 20.2125,0.15127 3.675,0.27503 -36.75,0.27503 -40.425,0 -56.9625,-0.12376 -36.75,-0.27503 z m 408,-69.93971 c 0.9625,-0.25152 2.5375,-0.25152 3.5,0 0.9625,0.25153 0.175,0.45733 -1.75,0.45733 -1.925,0 -2.7125,-0.2058 -1.75,-0.45733 z M 454.28601,403.5 c 0.008,-2.75 0.20172,-3.75631 0.43157,-2.23625 0.22986,1.52006 0.22371,3.77006 -0.0136,5 -0.23736,1.22994 -0.42542,-0.0138 -0.41792,-2.76375 z m -349.47351,1.81689 c 0.72187,-0.28887 1.58437,-0.25335 1.91667,0.0789 0.33229,0.33229 -0.25834,0.56864 -1.3125,0.52522 -1.16495,-0.048 -1.4019,-0.28494 -0.60417,-0.60416 z M 470.75,392.33772 c 0.6875,-0.27741 1.8125,-0.27741 2.5,0 0.6875,0.27741 0.125,0.50439 -1.25,0.50439 -1.375,0 -1.9375,-0.22698 -1.25,-0.50439 z M 108.8125,365.31689 c 0.72187,-0.28887 1.58437,-0.25335 1.91667,0.0789 0.33229,0.33229 -0.25834,0.56864 -1.3125,0.52522 -1.16495,-0.048 -1.4019,-0.28494 -0.60417,-0.60416 z m 224.26645,-22.90022 c 0.048,-1.16495 0.28494,-1.4019 0.60416,-0.60417 0.28887,0.72187 0.25335,1.58438 -0.0789,1.91667 -0.33229,0.33229 -0.56864,-0.25834 -0.52522,-1.3125 z M 35.157895,332 c 0,-1.375 0.226973,-1.9375 0.504386,-1.25 0.277412,0.6875 0.277412,1.8125 0,2.5 -0.277413,0.6875 -0.504386,0.125 -0.504386,-1.25 z m 18.921052,-0.58333 c 0.04798,-1.16495 0.284941,-1.4019 0.604167,-0.60417 0.288871,0.72187 0.253344,1.58438 -0.07895,1.91667 -0.332292,0.33229 -0.568641,-0.25834 -0.52522,-1.3125 z m 106.000003,0 c 0.048,-1.16495 0.28494,-1.4019 0.60416,-0.60417 0.28887,0.72187 0.25335,1.58438 -0.0789,1.91667 -0.3323,0.33229 -0.56864,-0.25834 -0.52522,-1.3125 z m 135,-3 c 0.048,-1.16495 0.28494,-1.4019 0.60416,-0.60417 0.28887,0.72187 0.25335,1.58438 -0.0789,1.91667 -0.33229,0.33229 -0.56864,-0.25834 -0.52522,-1.3125 z m 203.73355,-7.09978 c 0.72187,-0.28887 1.58438,-0.25335 1.91667,0.0789 0.33229,0.33229 -0.25834,0.56864 -1.3125,0.52522 -1.16495,-0.048 -1.4019,-0.28494 -0.60417,-0.60416 z M 140.32158,299.25047 c 16.40187,-0.15425 42.95187,-0.15414 59,2.4e-4 16.04813,0.15438 2.62842,0.28058 -29.82158,0.28045 -32.45,-1.4e-4 -45.58029,-0.12645 -29.17842,-0.28069 z m 226.92842,0.0333 c 1.5125,-0.22913 3.9875,-0.22913 5.5,0 1.5125,0.22912 0.275,0.41659 -2.75,0.41659 -3.025,0 -4.2625,-0.18747 -2.75,-0.41659 z m 90.05435,-0.0305 c 5.94239,-0.17711 15.39239,-0.17644 21,0.001 5.60761,0.17792 0.74565,0.32282 -10.80435,0.322 -11.55,-8.2e-4 -16.13804,-0.14638 -10.19565,-0.32348 z M 80.295706,262.25587 c 4.287638,-0.1879 11.037638,-0.18676 15,0.003 3.962362,0.1893 0.454294,0.34304 -7.795706,0.34164 -8.25,-10e-4 -11.491932,-0.15629 -7.204294,-0.34419 z m 134.000004,0 c 4.28763,-0.1879 11.03763,-0.18676 15,0.003 3.96236,0.1893 0.45429,0.34304 -7.79571,0.34164 -8.25,-10e-4 -11.49193,-0.15629 -7.20429,-0.34419 z m 137.52161,-0.005 c 11.72452,-0.16008 30.62452,-0.15988 42,4.5e-4 11.37547,0.16034 1.78268,0.29131 -21.31732,0.29107 -23.1,-2.5e-4 -32.40721,-0.13143 -20.68268,-0.29152 z M 433.46085,261.75 c -0.262,-0.6875 -0.35817,-46.025 -0.2137,-100.75 l 0.26267,-99.5 0.24509,100.23393 0.24509,100.23393 27.25,0.28282 27.25,0.28283 -27.28138,0.23324 C 440.14,262.94697 433.82892,262.7158 433.46085,261.75 Z M 369.42879,176.5 c 7e-4,-12.65 0.14401,-17.68711 0.31847,-11.19358 0.17445,6.49353 0.17388,16.84353 -10e-4,23 -0.17516,6.15647 -0.31789,0.84358 -0.31719,-11.80642 z M 74.269032,176.30701 c 0.972967,-0.25354 2.322967,-0.23687 3,0.0371 0.677032,0.27393 -0.119032,0.48137 -1.769032,0.46099 -1.65,-0.0204 -2.203936,-0.2445 -1.230968,-0.49804 z M 233.75,176.33772 c 0.6875,-0.27741 1.8125,-0.27741 2.5,0 0.6875,0.27741 0.125,0.50439 -1.25,0.50439 -1.375,0 -1.9375,-0.22698 -1.25,-0.50439 z M 97.812975,157.25149 c 8.972135,-0.1659 23.372135,-0.16557 31.999995,7.3e-4 8.62787,0.1663 1.28703,0.30204 -16.31297,0.30164 -17.6,-4e-4 -24.659161,-0.13647 -15.687025,-0.30237 z m 82.500535,-8e-5 c 9.24743,-0.16519 24.09743,-0.16488 33,6.9e-4 8.90257,0.16557 1.33649,0.30072 -16.81351,0.30034 -18.15,-3.8e-4 -25.43392,-0.13584 -16.18649,-0.30103 z M 369.43355,110.5 c -6.1e-4,-13.75 0.14023,-19.513697 0.31298,-12.808215 0.17275,6.705485 0.17325,17.955485 10e-4,24.999995 C 369.5755,129.7363 369.43416,124.25 369.43355,110.5 Z M 117.8125,104.31689 c 0.72187,-0.28887 1.58437,-0.25335 1.91667,0.0789 0.33229,0.3323 -0.25834,0.56864 -1.3125,0.52522 -1.16495,-0.048 -1.4019,-0.28494 -0.60417,-0.60416 z m 72,0 c 0.72187,-0.28887 1.58437,-0.25335 1.91667,0.0789 0.33229,0.3323 -0.25834,0.56864 -1.3125,0.52522 -1.16495,-0.048 -1.4019,-0.28494 -0.60417,-0.60416 z m -72,-19.000004 c 0.72187,-0.288871 1.58437,-0.253344 1.91667,0.07895 0.33229,0.332292 -0.25834,0.568641 -1.3125,0.52522 -1.16495,-0.04798 -1.4019,-0.284941 -0.60417,-0.604167 z m 71,0 c 0.72187,-0.288871 1.58437,-0.253344 1.91667,0.07895 0.33229,0.332292 -0.25834,0.568641 -1.3125,0.52522 -1.16495,-0.04798 -1.4019,-0.284941 -0.60417,-0.604167 z M 35.078947,70.416667 c 0.04798,-1.164943 0.284941,-1.4019 0.604167,-0.604167 0.288871,0.721875 0.253344,1.584375 -0.07895,1.916667 -0.332292,0.332291 -0.568641,-0.258334 -0.52522,-1.3125 z m 19,0 c 0.04798,-1.164943 0.284941,-1.4019 0.604167,-0.604167 0.288871,0.721875 0.253344,1.584375 -0.07895,1.916667 -0.332292,0.332291 -0.568641,-0.258334 -0.52522,-1.3125 z M 426.25,39.25114 c 11.4125,-0.160444 30.0875,-0.160444 41.5,0 11.4125,0.160444 2.075,0.291716 -20.75,0.291716 -22.825,0 -32.1625,-0.131272 -20.75,-0.291716 z"
         id="path333" />
      <path
         style="fill:#ea6d6d"
         d="m 109.82176,520.25045 c 16.67697,-0.15399 43.67697,-0.15389 60,2.4e-4 16.32303,0.15412 2.67824,0.28012 -30.32176,0.27999 -33,-1.3e-4 -46.355208,-0.12623 -29.67824,-0.28023 z M 295.15789,438 c 0,-1.375 0.22698,-1.9375 0.50439,-1.25 0.27741,0.6875 0.27741,1.8125 0,2.5 -0.27741,0.6875 -0.50439,0.125 -0.50439,-1.25 z m 19,-1 c 0,-1.375 0.22698,-1.9375 0.50439,-1.25 0.27741,0.6875 0.27741,1.8125 0,2.5 -0.27741,0.6875 -0.50439,0.125 -0.50439,-1.25 z m 159.65461,-1.68311 c 0.72187,-0.28887 1.58438,-0.25335 1.91667,0.0789 0.33229,0.33229 -0.25834,0.56864 -1.3125,0.52522 -1.16495,-0.048 -1.4019,-0.28494 -0.60417,-0.60416 z M 480.75,414.2596 c 3.4375,-0.19527 9.0625,-0.19527 12.5,0 3.4375,0.19527 0.625,0.35504 -6.25,0.35504 -6.875,0 -9.6875,-0.15977 -6.25,-0.35504 z M 406.15789,405 c 0,-1.375 0.22698,-1.9375 0.50439,-1.25 0.27741,0.6875 0.27741,1.8125 0,2.5 -0.27741,0.6875 -0.50439,0.125 -0.50439,-1.25 z M 111.8125,365.31689 c 0.72187,-0.28887 1.58437,-0.25335 1.91667,0.0789 0.33229,0.33229 -0.25834,0.56864 -1.3125,0.52522 -1.16495,-0.048 -1.4019,-0.28494 -0.60417,-0.60416 z m 221.26645,-19.90022 c 0.048,-1.16495 0.28494,-1.4019 0.60416,-0.60417 0.28887,0.72187 0.25335,1.58438 -0.0789,1.91667 -0.33229,0.33229 -0.56864,-0.25834 -0.52522,-1.3125 z M 35.232003,337 c 0,-1.925 0.205795,-2.7125 0.457323,-1.75 0.251527,0.9625 0.251527,2.5375 0,3.5 -0.251528,0.9625 -0.457323,0.175 -0.457323,-1.75 z m 19,-1 c 0,-1.925 0.205795,-2.7125 0.457323,-1.75 0.251527,0.9625 0.251527,2.5375 0,3.5 -0.251528,0.9625 -0.457323,0.175 -0.457323,-1.75 z M 460.25,338.2545 c 5.3625,-0.17981 14.1375,-0.17981 19.5,0 5.3625,0.17981 0.975,0.32692 -9.75,0.32692 -10.725,0 -15.1125,-0.14711 -9.75,-0.32692 z M 295.232,333 c 0,-1.925 0.2058,-2.7125 0.45733,-1.75 0.25152,0.9625 0.25152,2.5375 0,3.5 -0.25153,0.9625 -0.45733,0.175 -0.45733,-1.75 z m 19,-1 c 0,-1.925 0.2058,-2.7125 0.45733,-1.75 0.25152,0.9625 0.25152,2.5375 0,3.5 -0.25153,0.9625 -0.45733,0.175 -0.45733,-1.75 z m -135,-4 c 0,-1.925 0.2058,-2.7125 0.45733,-1.75 0.25152,0.9625 0.25152,2.5375 0,3.5 -0.25153,0.9625 -0.45733,0.175 -0.45733,-1.75 z m -18.97982,-1.5 c 0.0111,-2.2 0.21589,-2.98225 0.45508,-1.73834 0.23919,1.24391 0.23011,3.04391 -0.0202,4 -0.25029,0.95609 -0.446,-0.0617 -0.4349,-2.26166 z M 70.8125,262.31689 c 0.721875,-0.28887 1.584375,-0.25335 1.916667,0.0789 0.332291,0.33229 -0.258334,0.56864 -1.3125,0.52522 -1.164943,-0.048 -1.4019,-0.28494 -0.604167,-0.60416 z m 165.9375,0.0208 c 0.6875,-0.27741 1.8125,-0.27741 2.5,0 0.6875,0.27741 0.125,0.50439 -1.25,0.50439 -1.375,0 -1.9375,-0.22698 -1.25,-0.50439 z M 225,250.62244 c 0,-0.20765 0.7875,-0.99515 1.75,-1.75 1.58606,-1.24387 1.62143,-1.2085 0.37756,0.37756 C 225.82119,250.91575 225,251.44548 225,250.62244 Z m 115.75,-5.28472 c 0.6875,-0.27741 1.8125,-0.27741 2.5,0 0.6875,0.27741 0.125,0.50439 -1.25,0.50439 -1.375,0 -1.9375,-0.22698 -1.25,-0.50439 z M 463.232,219 c 0,-1.925 0.2058,-2.7125 0.45733,-1.75 0.25152,0.9625 0.25152,2.5375 0,3.5 -0.25153,0.9625 -0.45733,0.175 -0.45733,-1.75 z m 20,0 c 0,-1.925 0.2058,-2.7125 0.45733,-1.75 0.25152,0.9625 0.25152,2.5375 0,3.5 -0.25153,0.9625 -0.45733,0.175 -0.45733,-1.75 z M 369.07895,200.41667 c 0.048,-1.16495 0.28494,-1.4019 0.60416,-0.60417 0.28887,0.72187 0.25335,1.58437 -0.0789,1.91667 -0.33229,0.33229 -0.56864,-0.25834 -0.52522,-1.3125 z m -334.000003,-10 c 0.04798,-1.16495 0.284941,-1.4019 0.604167,-0.60417 0.288871,0.72187 0.253344,1.58437 -0.07895,1.91667 -0.332292,0.33229 -0.568641,-0.25834 -0.52522,-1.3125 z M 96.75,138.25179 c 8.9375,-0.16573 23.5625,-0.16573 32.5,0 8.9375,0.16574 1.625,0.30134 -16.25,0.30134 -17.875,0 -25.1875,-0.1356 -16.25,-0.30134 z m 83.5,-9e-5 c 9.2125,-0.16503 24.2875,-0.16503 33.5,0 9.2125,0.16503 1.675,0.30005 -16.75,0.30005 -18.425,0 -25.9625,-0.13502 -16.75,-0.30005 z m -59.4375,-33.93481 c 0.72187,-0.28887 1.58437,-0.25335 1.91667,0.0789 0.33229,0.3323 -0.25834,0.56864 -1.3125,0.52522 -1.16495,-0.048 -1.4019,-0.28494 -0.60417,-0.60416 z m 66,0 c 0.72187,-0.28887 1.58437,-0.25335 1.91667,0.0789 0.33229,0.3323 -0.25834,0.56864 -1.3125,0.52522 -1.16495,-0.048 -1.4019,-0.28494 -0.60417,-0.60416 z M 463.232,102 c 0,-1.925 0.2058,-2.7125 0.45733,-1.75 0.25152,0.9625 0.25152,2.5375 0,3.5 -0.25153,0.9625 -0.45733,0.175 -0.45733,-1.75 z m 20,0 c 0,-1.925 0.2058,-2.7125 0.45733,-1.75 0.25152,0.9625 0.25152,2.5375 0,3.5 -0.25153,0.9625 -0.45733,0.175 -0.45733,-1.75 z M 35.232003,75 c 0,-1.925 0.205795,-2.7125 0.457323,-1.75 0.251527,0.9625 0.251527,2.5375 0,3.5 -0.251528,0.9625 -0.457323,0.175 -0.457323,-1.75 z m 19,0 c 0,-1.925 0.205795,-2.7125 0.457323,-1.75 0.251527,0.9625 0.251527,2.5375 0,3.5 -0.251528,0.9625 -0.457323,0.175 -0.457323,-1.75 z"
         id="path331" />
      <path
         style="fill:#e75a5a"
         d="m 76.75,520.33772 c 0.6875,-0.27741 1.8125,-0.27741 2.5,0 0.6875,0.27741 0.125,0.50439 -1.25,0.50439 -1.375,0 -1.9375,-0.22698 -1.25,-0.50439 z M 54.252183,507.5 c 0.0111,-2.2 0.215885,-2.98225 0.455078,-1.73834 0.239193,1.24391 0.230112,3.04391 -0.02018,4 C 54.436788,510.71775 54.241084,509.7 54.252183,507.5 Z M 333.34941,495 c 0,-4.675 0.17226,-6.5875 0.3828,-4.25 0.21053,2.3375 0.21053,6.1625 0,8.5 -0.21054,2.3375 -0.3828,0.425 -0.3828,-4.25 z m 92.9934,-0.5 c 0.004,-4.4 0.17944,-6.07561 0.39069,-3.72357 0.21124,2.35204 0.20827,5.95204 -0.007,8 -0.21487,2.04796 -0.38771,0.12357 -0.38408,-4.27643 z M 35.476107,418 c 0,-43.175 0.123099,-60.8375 0.273554,-39.25 0.150454,21.5875 0.150454,56.9125 0,78.5 -0.150455,21.5875 -0.273554,3.925 -0.273554,-39.25 z m 297.975283,12.5 c -3.2e-4,-19.8 0.13325,-28.04173 0.29682,-18.31497 0.16358,9.72677 0.16384,25.92677 5.9e-4,36 -0.16325,10.07324 -0.29708,2.11497 -0.29741,-17.68503 z m 72.62756,33.91667 c 0.048,-1.16495 0.28494,-1.4019 0.60416,-0.60417 0.28887,0.72187 0.25335,1.58438 -0.0789,1.91667 -0.33229,0.33229 -0.56864,-0.25834 -0.52522,-1.3125 z M 295.32007,446 c 0,-3.575 0.1815,-5.0375 0.40333,-3.25 0.22182,1.7875 0.22182,4.7125 0,6.5 -0.22183,1.7875 -0.40333,0.325 -0.40333,-3.25 z m 19.00807,-0.5 c 0.004,-3.85 0.18518,-5.30246 0.40166,-3.2277 0.21647,2.07477 0.21284,5.22477 -0.008,7 -0.22091,1.77524 -0.39803,0.0777 -0.39359,-3.7723 z M 54.465921,392 c 0,-29.425 0.127518,-41.4625 0.283373,-26.75 0.155855,14.7125 0.155855,38.7875 0,53.5 -0.155855,14.7125 -0.283373,2.675 -0.283373,-26.75 z M 472.8125,414.31689 c 0.72187,-0.28887 1.58438,-0.25335 1.91667,0.0789 0.33229,0.33229 -0.25834,0.56864 -1.3125,0.52522 -1.16495,-0.048 -1.4019,-0.28494 -0.60417,-0.60416 z M 406.15789,401 c 0,-1.375 0.22698,-1.9375 0.50439,-1.25 0.27741,0.6875 0.27741,1.8125 0,2.5 -0.27741,0.6875 -0.50439,0.125 -0.50439,-1.25 z m -72.75795,-39.5 c 10e-4,-8.25 0.15629,-11.49193 0.34419,-7.20429 0.1879,4.28763 0.18676,11.03763 -0.003,15 -0.1893,3.96236 -0.34304,0.45429 -0.34164,-7.79571 z m -19.03471,-17 c 0.003,-5.5 0.17053,-7.62242 0.37317,-4.71648 0.20265,2.90594 0.20052,7.40594 -0.005,10 -0.20525,2.59406 -0.37104,0.21648 -0.36844,-5.28352 z m -19.03709,-2 c 0.004,-3.85 0.18518,-5.30246 0.40166,-3.2277 0.21647,2.07477 0.21284,5.22477 -0.008,7 -0.22091,1.77524 -0.39803,0.0777 -0.39359,-3.7723 z M 490.25,338.31067 c 0.9625,-0.25152 2.5375,-0.25152 3.5,0 0.9625,0.25153 0.175,0.45733 -1.75,0.45733 -1.925,0 -2.7125,-0.2058 -1.75,-0.45733 z m -311.17105,-14.894 c 0.048,-1.16495 0.28494,-1.4019 0.60416,-0.60417 0.28887,0.72187 0.25335,1.58438 -0.0789,1.91667 -0.3323,0.33229 -0.56864,-0.25834 -0.52522,-1.3125 z M 357,324.62244 c 0,-0.20765 0.7875,-0.99515 1.75,-1.75 1.58606,-1.24387 1.62143,-1.2085 0.37756,0.37756 C 357.82119,324.91575 357,325.44548 357,324.62244 Z M 35.309869,249.5 c 0.0056,-3.3 0.192301,-4.52944 0.414862,-2.73209 0.222562,1.79735 0.217969,4.49735 -0.0102,6 -0.228174,1.50265 -0.41027,0.0321 -0.404657,-3.26791 z m 18.976145,-1 c 0.0075,-2.75 0.201713,-3.75631 0.431567,-2.23625 0.229855,1.52006 0.223712,3.77006 -0.01365,5 C 54.466569,252.49369 54.278507,251.25 54.286014,248.5 Z M 79.272364,232 c 0,-2.475 0.195016,-3.4875 0.433369,-2.25 0.238353,1.2375 0.238353,3.2625 0,4.5 -0.238353,1.2375 -0.433369,0.225 -0.433369,-2.25 z M 463.46731,160.5 c -1.4e-4,-30.8 0.12671,-43.54445 0.28191,-28.321 0.15519,15.22345 0.15531,40.42345 2.6e-4,56 -0.15504,15.57655 -0.28202,3.121 -0.28217,-27.679 z m 20,0 c -1.4e-4,-30.8 0.12671,-43.54445 0.28191,-28.321 0.15519,15.22345 0.15531,40.42345 2.6e-4,56 -0.15504,15.57655 -0.28202,3.121 -0.28217,-27.679 z M 295.4681,143 c 0,-31.625 0.12658,-44.5625 0.28128,-28.75 0.15471,15.8125 0.15471,41.6875 0,57.5 -0.1547,15.8125 -0.28128,2.875 -0.28128,-28.75 z m 18.95941,33 c 0,-12.375 0.14355,-17.4375 0.319,-11.25 0.17544,6.1875 0.17544,16.3125 0,22.5 -0.17545,6.1875 -0.319,1.125 -0.319,-11.25 z M 54.299664,188 c 0,-3.025 0.187466,-4.2625 0.41659,-2.75 0.229125,1.5125 0.229125,3.9875 0,5.5 -0.229124,1.5125 -0.41659,0.275 -0.41659,-2.75 z M 314.43125,111.5 c 6.6e-4,-13.2 0.14295,-18.461693 0.31621,-11.692651 0.17326,6.769041 0.17273,17.569041 -10e-4,24.000001 -0.1741,6.43096 -0.31586,0.89265 -0.31521,-12.30735 z M 54.360496,87 c 0,-5.225 0.168545,-7.3625 0.374543,-4.75 0.205999,2.6125 0.205999,6.8875 0,9.5 -0.205998,2.6125 -0.374543,0.475 -0.374543,-4.75 z m -19.02429,-2 c 0,-4.125 0.176518,-5.8125 0.392262,-3.75 0.215745,2.0625 0.215745,5.4375 0,7.5 -0.215744,2.0625 -0.392262,0.375 -0.392262,-3.75 z M 79.374067,64.5 c 0.0023,-6.05 0.166961,-8.396069 0.366011,-5.213487 0.19905,3.182582 0.197204,8.132582 -0.0041,11 C 79.53467,73.153931 79.371811,70.55 79.374067,64.5 Z"
         id="path329" />
      <path
         style="fill:#e54848"
         d="m 200.26903,541.30701 c 0.97297,-0.25354 2.32297,-0.23687 3,0.0371 0.67703,0.27393 -0.11903,0.48137 -1.76903,0.46099 -1.65,-0.0204 -2.20394,-0.2445 -1.23097,-0.49804 z m 132.80992,-36.89034 c 0.048,-1.16495 0.28494,-1.4019 0.60416,-0.60417 0.28887,0.72187 0.25335,1.58438 -0.0789,1.91667 -0.33229,0.33229 -0.56864,-0.25834 -0.52522,-1.3125 z m 19,-4 c 0.048,-1.16495 0.28494,-1.4019 0.60416,-0.60417 0.28887,0.72187 0.25335,1.58438 -0.0789,1.91667 -0.33229,0.33229 -0.56864,-0.25834 -0.52522,-1.3125 z M 406.39994,480.5 c 10e-4,-8.25 0.15629,-11.49193 0.34419,-7.20429 0.1879,4.28763 0.18676,11.03763 -0.003,15 -0.1893,3.96236 -0.34304,0.45429 -0.34164,-7.79571 z m 93.86909,-45.19299 c 0.97297,-0.25354 2.32297,-0.23687 3,0.0371 0.67703,0.27393 -0.11903,0.48137 -1.76903,0.46099 -1.65,-0.0204 -2.20394,-0.2445 -1.23097,-0.49804 z M 406.33621,392 c 0,-4.125 0.17651,-5.8125 0.39226,-3.75 0.21574,2.0625 0.21574,5.4375 0,7.5 -0.21575,2.0625 -0.39226,0.375 -0.39226,-3.75 z m -92.25726,-36.58333 c 0.048,-1.16495 0.28494,-1.4019 0.60416,-0.60417 0.28887,0.72187 0.25335,1.58438 -0.0789,1.91667 -0.33229,0.33229 -0.56864,-0.25834 -0.52522,-1.3125 z m 53.68896,-35.1414 c 1.79735,-0.22256 4.49735,-0.21797 6,0.0102 1.50265,0.22818 0.0321,0.41027 -3.26791,0.40466 -3.3,-0.006 -4.52944,-0.1923 -2.73209,-0.41486 z M 186.44306,206.5 c -4.5e-4,-16.5 0.13655,-23.39031 0.30444,-15.31181 0.16789,8.07851 0.16826,21.57851 8.2e-4,30 C 186.58087,229.60969 186.44351,223 186.44306,206.5 Z M 143.44225,206 c 0,-16.225 0.13752,-22.8625 0.30561,-14.75 0.16808,8.1125 0.16808,21.3875 0,29.5 -0.16809,8.1125 -0.30561,1.475 -0.30561,-14.75 z m -74.674341,-5.72473 c 1.79735,-0.22256 4.49735,-0.21797 6,0.0102 1.50265,0.22818 0.03209,0.41027 -3.267909,0.40466 -3.3,-0.006 -4.529441,-0.1923 -2.732091,-0.41486 z m 167.000001,0 c 1.79735,-0.22256 4.49735,-0.21797 6,0.0102 1.50265,0.22818 0.0321,0.41027 -3.26791,0.40466 -3.3,-0.006 -4.52944,-0.1923 -2.73209,-0.41486 z M 145.3605,148 c 0,-5.225 0.16854,-7.3625 0.37454,-4.75 0.206,2.6125 0.206,6.8875 0,9.5 -0.206,2.6125 -0.37454,0.475 -0.37454,-4.75 z M 118.25,118.25038 c 20.2125,-0.15126 53.2875,-0.15126 73.5,0 20.2125,0.15127 3.675,0.27503 -36.75,0.27503 -40.425,0 -56.9625,-0.12376 -36.75,-0.27503 z m 21.5,-13.99836 c 8.3875,-0.16726 22.1125,-0.16726 30.5,0 8.3875,0.16726 1.525,0.3041 -15.25,0.3041 -16.775,0 -23.6375,-0.13684 -15.25,-0.3041 z M 314.07895,86.416667 c 0.048,-1.164943 0.28494,-1.4019 0.60416,-0.604167 0.28887,0.721875 0.25335,1.584375 -0.0789,1.916667 -0.33229,0.332291 -0.56864,-0.258334 -0.52522,-1.3125 z M 256.19495,76.5 c 0.0204,-1.65 0.2445,-2.203936 0.49804,-1.230968 0.25354,0.972967 0.23687,2.322967 -0.0371,3 C 256.38201,78.946064 256.17457,78.15 256.19495,76.5 Z M 125.6788,72.250758 c 15.49834,-0.154915 41.14834,-0.155031 57,-2.59e-4 15.85166,0.154772 3.1712,0.28152 -28.1788,0.281662 -31.35,1.42e-4 -44.31954,-0.126489 -28.8212,-0.281403 z"
         id="path327" />
      <path
         style="fill:#e23232"
         d="m 111.32158,541.25047 c 16.40187,-0.15425 42.95187,-0.15414 59,2.4e-4 16.04813,0.15438 2.62842,0.28058 -29.82158,0.28045 -32.45,-1.4e-4 -45.580289,-0.12645 -29.17842,-0.28069 z m 333.49092,-0.93358 c 0.72187,-0.28887 1.58438,-0.25335 1.91667,0.0789 0.33229,0.33229 -0.25834,0.56864 -1.3125,0.52522 -1.16495,-0.048 -1.4019,-0.28494 -0.60417,-0.60416 z M 274.232,510 c 0,-1.925 0.2058,-2.7125 0.45733,-1.75 0.25152,0.9625 0.25152,2.5375 0,3.5 -0.25153,0.9625 -0.45733,0.175 -0.45733,-1.75 z m -68.4195,-6.68311 c 0.72187,-0.28887 1.58437,-0.25335 1.91667,0.0789 0.33229,0.33229 -0.25834,0.56864 -1.3125,0.52522 -1.16495,-0.048 -1.4019,-0.28494 -0.60417,-0.60416 z M 516.34941,495 c 0,-4.675 0.17226,-6.5875 0.3828,-4.25 0.21053,2.3375 0.21053,6.1625 0,8.5 -0.21054,2.3375 -0.3828,0.425 -0.3828,-4.25 z m -164.27046,2.41667 c 0.048,-1.16495 0.28494,-1.4019 0.60416,-0.60417 0.28887,0.72187 0.25335,1.58438 -0.0789,1.91667 -0.33229,0.33229 -0.56864,-0.25834 -0.52522,-1.3125 z m 5.73355,-11.09978 c 0.72187,-0.28887 1.58438,-0.25335 1.91667,0.0789 0.33229,0.33229 -0.25834,0.56864 -1.3125,0.52522 -1.16495,-0.048 -1.4019,-0.28494 -0.60417,-0.60416 z M 516.32814,460.5 c 0.004,-3.85 0.18518,-5.30246 0.40166,-3.2277 0.21647,2.07477 0.21284,5.22477 -0.008,7 -0.22091,1.77524 -0.39803,0.0777 -0.39359,-3.7723 z M 483.75,435.26276 c 2.8875,-0.202 7.6125,-0.202 10.5,0 2.8875,0.202 0.525,0.36728 -5.25,0.36728 -5.775,0 -8.1375,-0.16528 -5.25,-0.36728 z m -369.9375,-8.94587 c 0.72187,-0.28887 1.58437,-0.25335 1.91667,0.0789 0.33229,0.33229 -0.25834,0.56864 -1.3125,0.52522 -1.16495,-0.048 -1.4019,-0.28494 -0.60417,-0.60416 z m 119,-20 c 0.72187,-0.28887 1.58437,-0.25335 1.91667,0.0789 0.33229,0.33229 -0.25834,0.56864 -1.3125,0.52522 -1.16495,-0.048 -1.4019,-0.28494 -0.60417,-0.60416 z M 88.299664,395 c 0,-3.025 0.187466,-4.2625 0.41659,-2.75 0.229125,1.5125 0.229125,3.9875 0,5.5 -0.229124,1.5125 -0.41659,0.275 -0.41659,-2.75 z M 354.8125,394.31689 c 0.72187,-0.28887 1.58438,-0.25335 1.91667,0.0789 0.33229,0.33229 -0.25834,0.56864 -1.3125,0.52522 -1.16495,-0.048 -1.4019,-0.28494 -0.60417,-0.60416 z M 305.40499,384.75 303.5,382.5 l 2.25,1.90499 c 2.11444,1.79022 2.70524,2.59501 1.90499,2.59501 -0.18976,0 -1.20226,-1.0125 -2.25,-2.25 z m -74.59249,-1.43311 c 0.72187,-0.28887 1.58437,-0.25335 1.91667,0.0789 0.33229,0.33229 -0.25834,0.56864 -1.3125,0.52522 -1.16495,-0.048 -1.4019,-0.28494 -0.60417,-0.60416 z m 95.9375,-7.02262 c 1.2375,-0.23836 3.2625,-0.23836 4.5,0 1.2375,0.23835 0.225,0.43337 -2.25,0.43337 -2.475,0 -3.4875,-0.19502 -2.25,-0.43337 z m 28.51375,-0.0118 c 1.52006,-0.22986 3.77006,-0.22371 5,0.0136 1.22994,0.23736 -0.0138,0.42542 -2.76375,0.41792 -2.75,-0.008 -3.75631,-0.20172 -2.23625,-0.43157 z m 119.54875,-4.96553 c 0.72187,-0.28887 1.58438,-0.25335 1.91667,0.0789 0.33229,0.33229 -0.25834,0.56864 -1.3125,0.52522 -1.16495,-0.048 -1.4019,-0.28494 -0.60417,-0.60416 z m 29,0 c 0.72187,-0.28887 1.58438,-0.25335 1.91667,0.0789 0.33229,0.33229 -0.25834,0.56864 -1.3125,0.52522 -1.16495,-0.048 -1.4019,-0.28494 -0.60417,-0.60416 z M 146.25,365.25062 c 15.8125,-0.15471 41.6875,-0.15471 57.5,0 15.8125,0.1547 2.875,0.28128 -28.75,0.28128 -31.625,0 -44.5625,-0.12658 -28.75,-0.28128 z M 256.36996,343 c 0,-5.775 0.16528,-8.1375 0.36728,-5.25 0.202,2.8875 0.202,7.6125 0,10.5 -0.202,2.8875 -0.36728,0.525 -0.36728,-5.25 z m 241.44254,-4.68311 c 0.72187,-0.28887 1.58438,-0.25335 1.91667,0.0789 0.33229,0.33229 -0.25834,0.56864 -1.3125,0.52522 -1.16495,-0.048 -1.4019,-0.28494 -0.60417,-0.60416 z M 516.27236,330 c 0,-2.475 0.19502,-3.4875 0.43337,-2.25 0.23836,1.2375 0.23836,3.2625 0,4.5 -0.23835,1.2375 -0.43337,0.225 -0.43337,-2.25 z m -263.39992,-3.75 c -1.24387,-1.58606 -1.2085,-1.62143 0.37756,-0.37756 0.9625,0.75485 1.75,1.54235 1.75,1.75 0,0.82304 -0.82119,0.29331 -2.12756,-1.37244 z M 237.8125,300.31689 c 0.72187,-0.28887 1.58437,-0.25335 1.91667,0.0789 0.33229,0.33229 -0.25834,0.56864 -1.3125,0.52522 -1.16495,-0.048 -1.4019,-0.28494 -0.60417,-0.60416 z m -134,-20 c 0.72187,-0.28887 1.58437,-0.25335 1.91667,0.0789 0.33229,0.33229 -0.25834,0.56864 -1.3125,0.52522 -1.16495,-0.048 -1.4019,-0.28494 -0.60417,-0.60416 z m 217,0 c 0.72187,-0.28887 1.58438,-0.25335 1.91667,0.0789 0.33229,0.33229 -0.25834,0.56864 -1.3125,0.52522 -1.16495,-0.048 -1.4019,-0.28494 -0.60417,-0.60416 z M 256.28601,248.5 c 0.008,-2.75 0.20172,-3.75631 0.43157,-2.23625 0.22986,1.52006 0.22371,3.77006 -0.0136,5 -0.23736,1.22994 -0.42542,-0.0137 -0.41792,-2.76375 z m -70.20706,-11.08333 c 0.048,-1.16495 0.28494,-1.4019 0.60416,-0.60417 0.28887,0.72187 0.25335,1.58437 -0.0789,1.91667 -0.3323,0.33229 -0.56864,-0.25834 -0.52522,-1.3125 z M 211.33621,231 c 0,-4.125 0.17651,-5.8125 0.39226,-3.75 0.21574,2.0625 0.21574,5.4375 0,7.5 -0.21575,2.0625 -0.39226,0.375 -0.39226,-3.75 z m 305.13885,-69.5 c -8e-5,-41.25 0.12344,-58.27077 0.27449,-37.82394 0.15105,20.44684 0.15112,54.19684 1.6e-4,75 -0.15097,20.80317 -0.27456,4.07394 -0.27465,-37.17606 z M 58.767909,219.27527 c 1.79735,-0.22256 4.49735,-0.21797 6,0.0102 1.50265,0.22818 0.03209,0.41027 -3.267909,0.40466 -3.3,-0.006 -4.529441,-0.1923 -2.732091,-0.41486 z M 244.75,219.2766 c 1.7875,-0.22182 4.7125,-0.22182 6.5,0 1.7875,0.22183 0.325,0.40333 -3.25,0.40333 -3.575,0 -5.0375,-0.1815 -3.25,-0.40333 z M 314.15789,202 c 0,-1.375 0.22698,-1.9375 0.50439,-1.25 0.27741,0.6875 0.27741,1.8125 0,2.5 -0.27741,0.6875 -0.50439,0.125 -0.50439,-1.25 z M 253,198.62244 c 0,-0.20765 0.7875,-0.99515 1.75,-1.75 1.58606,-1.24387 1.62143,-1.2085 0.37756,0.37756 C 253.82119,198.91575 253,199.44548 253,198.62244 Z M 274.15789,192 c 0,-1.375 0.22698,-1.9375 0.50439,-1.25 0.27741,0.6875 0.27741,1.8125 0,2.5 -0.27741,0.6875 -0.50439,0.125 -0.50439,-1.25 z m -17.85823,-4 c 0,-3.025 0.18747,-4.2625 0.41659,-2.75 0.22913,1.5125 0.22913,3.9875 0,5.5 -0.22912,1.5125 -0.41659,0.275 -0.41659,-2.75 z M 79.8125,118.31689 c 0.721875,-0.28887 1.584375,-0.25335 1.916667,0.0789 0.332291,0.3323 -0.258334,0.56864 -1.3125,0.52522 -1.164943,-0.048 -1.4019,-0.28494 -0.604167,-0.60416 z m 149,0 c 0.72187,-0.28887 1.58437,-0.25335 1.91667,0.0789 0.33229,0.3323 -0.25834,0.56864 -1.3125,0.52522 -1.16495,-0.048 -1.4019,-0.28494 -0.60417,-0.60416 z M 58.872445,111.25 c -1.243871,-1.58606 -1.208501,-1.62143 0.377555,-0.37756 0.9625,0.75485 1.75,1.54235 1.75,1.75 0,0.82304 -0.821186,0.29331 -2.127555,-1.37244 z M 256.36523,88.5 c 0.003,-5.5 0.17053,-7.622415 0.37317,-4.716478 0.20265,2.905937 0.20052,7.405937 -0.005,10 C 256.52842,96.377585 256.36263,94 256.36523,88.5 Z m 277.71372,-4.083333 c 0.048,-1.164943 0.28494,-1.4019 0.60416,-0.604167 0.28887,0.721875 0.25335,1.584375 -0.0789,1.916667 -0.33229,0.332291 -0.56864,-0.258334 -0.52522,-1.3125 z m -220,-1 c 0.048,-1.164943 0.28494,-1.4019 0.60416,-0.604167 0.28887,0.721875 0.25335,1.584375 -0.0789,1.916667 -0.33229,0.332291 -0.56864,-0.258334 -0.52522,-1.3125 z M 211.19495,75.5 c 0.0204,-1.65 0.2445,-2.203936 0.49804,-1.230968 0.25354,0.972967 0.23687,2.322967 -0.0371,3 C 211.38201,77.946064 211.17457,77.15 211.19495,75.5 Z m 63,-2 c 0.0204,-1.65 0.2445,-2.203936 0.49804,-1.230968 0.25354,0.972967 0.23687,2.322967 -0.0371,3 C 274.38201,75.946064 274.17457,75.15 274.19495,73.5 Z M 211.232,51 c 0,-1.925 0.2058,-2.7125 0.45733,-1.75 0.25152,0.9625 0.25152,2.5375 0,3.5 C 211.4378,53.7125 211.232,52.925 211.232,51 Z M 331.8125,40.316886 c 0.72187,-0.288871 1.58438,-0.253344 1.91667,0.07895 0.33229,0.332292 -0.25834,0.568641 -1.3125,0.52522 -1.16495,-0.04798 -1.4019,-0.284941 -0.60417,-0.604167 z m 165,0 c 0.72187,-0.288871 1.58438,-0.253344 1.91667,0.07895 0.33229,0.332292 -0.25834,0.568641 -1.3125,0.52522 -1.16495,-0.04798 -1.4019,-0.284941 -0.60417,-0.604167 z"
         id="path325" />
      <path
         style="fill:#dc0000"
         d="M 19.295944,569.46018 C 13.116406,566.38079 5.6369969,558.61948 2.679273,552.21723 L 0.5,547.5 v -261 -261 L 3.262166,19.875462 C 6.519608,13.242404 14.168877,5.7347711 20.782772,2.679273 L 25.5,0.5 h 261 261 l 4.71723,2.179273 c 6.40225,2.9577239 14.16356,10.437133 17.24295,16.616671 L 572,24.392689 571.978,286.44634 c -0.0215,256.30364 -0.0641,262.14652 -1.94301,266.28558 -2.69141,5.92895 -10.3005,13.72315 -16.33097,16.72826 L 548.60731,572 H 286.5 24.392689 Z M 535.21723,553.32073 c 6.61389,-3.0555 14.26316,-10.56313 17.5206,-17.19619 L 555.5,530.5 v -244 -244 l -2.76217,-5.624538 C 549.48039,30.242404 541.83112,22.734771 535.21723,19.679273 L 530.5,17.5 h -244 -244 l -4.717228,2.179273 C 31.168877,22.734771 23.519608,30.242404 20.262166,36.875462 L 17.5,42.5 v 244 244 l 2.16089,4.67567 c 2.505412,5.42114 9.065125,12.87384 14.034548,15.94512 8.080095,4.99377 -4.58175,4.76641 254.304562,4.56648 L 530.5,555.5 Z M 262.14383,540.6733 C 257.39222,534.94797 256,521.36246 256,480.72091 c 0,-35.29264 -0.53742,-39.64085 -5.65045,-45.71734 -1.43062,-1.7002 -4.45703,-4.08404 -6.72534,-5.29742 C 239.5226,427.51209 239.12735,427.49662 171.5,426.88246 97.928444,426.21432 95.999202,426.07372 85.180939,420.59169 76.383981,416.13393 72,407.95474 72,396 72,384.55829 76.388358,375.88317 84.189416,371.90337 94.717,366.53259 92.296104,366.70083 169,366.00969 c 78.90998,-0.71101 78.42696,-0.6708 84.52625,-7.03709 2.82711,-2.95086 2.95931,-3.50436 3.28985,-13.7735 0.46733,-14.51917 -0.69559,-17.88885 -7.3161,-21.1991 -4.98165,-2.49083 -5.12018,-2.50118 -37.75,-2.82266 l -32.75,-0.32266 -0.008,8.82266 c -0.0145,16.92809 -3.21182,29.83765 -7.66686,30.95579 -5.91885,1.48554 -9.1487,-7.13436 -10.03444,-26.78013 l -0.57019,-12.647 -35.11048,-0.43384 c -38.508629,-0.47582 -46.848959,-1.48353 -52.031582,-6.28662 -3.226426,-2.99015 -3.255274,-4.95419 -0.115505,-7.86403 6.419113,-5.94904 15.141097,-6.56034 93.536607,-6.55575 72.5287,0.004 77.89528,0.29417 88.16967,4.76316 10.86142,4.72433 17.05237,14.32543 18.69299,28.98963 0.91797,8.20504 0.14048,19.59081 -1.77653,26.01572 -2.83434,9.49935 -9.48674,16.30118 -19.66907,20.11088 -8.99292,3.36468 -24.15039,4.05209 -89.91706,4.07787 -35.03778,0.0137 -64.775379,0.43604 -67,0.95148 -2.2,0.50974 -4.7875,1.89886 -5.75,3.08693 -1.935499,2.38911 -2.383665,9.88604 -0.771109,12.89913 2.320798,4.33645 3.964193,4.44174 79.521109,5.09488 75.96635,0.65668 76.04919,0.66182 86.88152,5.38784 2.13484,0.93141 5.95984,3.83143 8.5,6.44449 9.69646,9.97474 11.6915,23.29778 10.79836,72.11223 -0.60333,32.97441 -1.46242,41.69326 -4.74149,48.12077 -2.09269,4.102 -5.56492,5.23908 -7.79456,2.55253 z M 65.5,539.59475 C 49.101852,535.5439 40.549472,526.48186 37.097801,509.5 36.174883,504.95934 35.96099,480.75857 36.218392,410 c 0.29684,-81.59981 0.540927,-94.16987 1.917798,-98.76317 3.676611,-12.26533 10.073081,-12.26533 13.71103,0 1.327123,4.47439 1.613418,14.95912 1.910319,69.96001 l 0.349241,64.69683 82.19661,0.36956 c 85.37453,0.38385 87.87976,0.50408 95.42369,4.57949 6.24283,3.37252 4.52121,8.91764 -3.60691,11.61737 -9.13169,3.03305 -22.22577,3.50428 -97.87017,3.52214 L 55,466 v 9.45186 9.45186 l 82.75,0.34661 c 83.30857,0.34895 84.38621,0.39321 93.27772,3.83089 5.73972,2.21912 5.81707,7.39632 0.15427,10.32467 -6.97228,3.60551 -12.3748,3.84847 -95.55226,4.29726 l -81.870267,0.44173 0.49139,5.11399 c 0.549083,5.71443 2.420549,7.87345 8.57917,9.8974 2.664312,0.8756 24.769884,1.3784 80.669977,1.83488 81.43581,0.66501 82.88007,0.75173 89.97925,5.40329 2.08736,1.3677 2.57381,2.38932 2.32952,4.8924 -0.41282,4.22986 -5.6668,7.15146 -15.48729,8.61207 C 209.39764,541.52363 72.217274,541.25413 65.5,539.59475 Z m 240.5,0.22986 c -5.43788,-1.54592 -7.14276,-3.59567 -6.79781,-8.17289 0.47803,-6.34324 3.47713,-7.89119 16.62579,-8.58125 7.49749,-0.39347 11.43041,-1.03587 12.67597,-2.07047 3.46903,-2.88148 4.77645,-8.12861 5.27287,-21.16186 l 0.48227,-12.66186 -5.87954,-0.64337 c -19.38981,-2.12173 -28.23517,-8.71594 -31.34438,-23.36717 -1.80501,-8.50562 -0.98523,-36.39003 1.21753,-41.4135 2.03963,-4.65143 5.66559,-6.56613 9.29926,-4.91052 4.41796,2.01296 5.70461,7.03641 6.44371,25.15828 0.3986,9.77304 1.18294,17.55378 1.92386,19.08473 1.89737,3.92054 6.11164,5.91527 12.49724,5.91527 h 5.60818 L 333.76247,430.75 333.5,394.5 l -6.58554,-0.65145 c -14.39591,-1.42407 -24.01898,-9.01221 -28.1706,-22.21354 C 296.67924,365.06994 296.5,362.58289 296.5,340.5 c 0,-25.37553 0.85362,-32.13725 4.66954,-36.9884 3.75508,-4.77382 7.78852,-2.41577 10.50903,6.14384 1.09852,3.45628 1.76929,12.00868 2.34073,29.84456 0.44054,13.75 1.29073,26.60842 1.88932,28.57426 1.78615,5.86597 5.05542,8.16833 11.79526,8.30672 L 333.5,376.5 334.09504,352 c 0.51759,-21.3112 0.87335,-25.34601 2.73336,-31 2.80533,-8.52757 5.22362,-12.30074 10.18915,-15.89775 C 352.14786,301.38587 358.52615,300 370.5,300 c 17.15637,0 24.5,3.08139 24.5,10.28023 0,6.73681 -6.41117,9.71898 -20.89922,9.72132 -11.58799,0.002 -15.46693,1.57137 -18.53215,7.49845 -1.88041,3.63605 -2.09898,6.08372 -2.40221,26.90137 l -0.33358,22.90136 7.16058,-0.6655 c 8.52185,-0.79202 12.34535,-2.54947 13.79345,-6.34007 0.58772,-1.53844 1.26131,-7.14463 1.49686,-12.45821 0.48269,-10.8886 2.38099,-15.56052 6.94004,-17.08021 3.60305,-1.20101 7.81542,0.85674 9.72436,4.75037 1.91939,3.91495 2.61109,21.48019 1.12731,28.62748 -1.40031,6.7453 -5.57066,12.07939 -11.92662,15.25478 -6.13804,3.06652 -9.01463,3.74018 -19.14882,4.48441 l -8.5,0.62422 -0.26259,36.35994 -0.26259,36.35993 7.5128,-0.37938 c 6.89875,-0.34837 7.77704,-0.64361 10.74561,-3.61219 l 3.23281,-3.2328 0.66597,-17.37519 c 0.54789,-14.29447 1.02559,-18.18817 2.69425,-21.96044 3.42787,-7.74928 9.90761,-7.65848 13.5071,0.18929 1.91657,4.17857 2.13488,6.42789 2.14991,22.15084 0.0185,19.38942 -0.67101,23.0669 -5.74686,30.64923 -4.57329,6.83159 -13.08202,11.00424 -25.12376,12.3206 -4.88804,0.53435 -9.01085,1.09723 -9.16179,1.25085 -0.15094,0.15363 -0.74151,6.57932 -1.31237,14.27932 -1.88283,25.39594 -7.15429,35.45336 -20.13849,38.42219 -5.62729,1.28667 -21.33822,1.22771 -26,-0.0976 z m 138.5,0.52996 C 422.69035,537.84088 412.0568,528.83118 408.08438,509.5 c -0.84356,-4.10509 -1.13054,-13.89547 -0.90867,-31 0.2994,-23.08129 0.48184,-25.2682 2.37713,-28.4945 2.32473,-3.95734 6.62916,-6.01125 9.19974,-4.38977 3.5279,2.22534 5.4305,6.25671 6.47889,13.72797 L 426.30583,467 H 471.65291 517 v -8.86514 C 517,446.93892 518.74321,444 525.38402,444 c 9.25672,0 10.19013,3.908 9.30617,38.96311 -0.77796,30.85134 -2.59669,38.20719 -11.60058,46.91841 -5.54777,5.36745 -13.25633,8.66986 -23.58961,10.106 -6.42829,0.89341 -48.02458,1.17101 -55,0.36705 z m 55.91255,-18.87381 c 12.04037,-3.13611 15.53893,-8.3087 16.3485,-24.17112 L 517.28723,487 H 471.64361 426 l 0.0239,8.25 c 0.048,16.60026 3.95626,23.17485 15.64361,26.31614 7.35573,1.97705 51.0708,1.91352 58.74508,-0.0854 z m -86.0058,-87.50872 c -2.7775,-1.05039 -5.05727,-6.08395 -6.34204,-14.00272 -1.62465,-10.01366 -1.32999,-44.21875 0.44581,-51.7508 3.72444,-15.79726 11.94505,-23.97054 27.80153,-27.64146 5.29268,-1.22531 12.8761,-1.58395 34,-1.60794 C 509.82482,338.92425 517,337.63171 517,330.55873 c 0,-4.77393 -0.88038,-6.5455 -3.88638,-7.82052 -1.67918,-0.71223 -17.98728,-1.36662 -45.61362,-1.83033 -42.65292,-0.71593 -47.90291,-1.14743 -55.7715,-4.58389 -6.16471,-2.69232 -6.33929,-8.85721 -0.33155,-11.70806 7.81163,-3.70687 13.1887,-4.11593 54.10305,-4.11593 35.67249,0 40.70322,0.19735 46.5,1.82415 15.65003,4.39202 22.12919,12.14766 22.26582,26.6525 0.10742,11.40395 -4.27024,19.94431 -12.33107,24.05664 -8.50242,4.33761 -15.00224,5.13097 -47.93475,5.85089 -33.74984,0.73778 -36.08313,1.0952 -41.86827,6.41355 -4.97057,4.5695 -6.08596,9.01412 -6.10977,24.34632 -0.0502,32.31253 -3.95741,47.22402 -11.61521,44.32799 z m 45.749,-0.46166 c -11.3093,-2.53704 -18.42713,-7.13235 -22.16991,-14.31305 -5.95498,-11.42488 -3.86755,-30.39268 4.16979,-37.88955 3.3129,-3.09012 12.50517,-7.11101 19.45019,-8.50792 9.1586,-1.84214 50.12588,-1.51616 59.07535,0.47007 10.82997,2.40358 14.89551,5.9155 12.35131,10.66938 -3.02312,5.64875 -10.99989,7.07522 -44.2631,7.91548 -26.83544,0.67789 -28.9133,0.86182 -31.5,2.78829 -2.46687,1.83723 -2.80155,2.78293 -3.06388,8.65751 -0.26545,5.94441 -0.0681,6.74253 2,8.09066 3.8294,2.49619 14.33099,3.59326 34.47214,3.6012 22.09152,0.009 32.98252,1.20517 39.25248,4.31222 5.47328,2.71226 6.72516,5.59256 3.95909,9.10905 -3.91673,4.97931 -9.70385,5.88103 -39.88921,6.21532 -21.05972,0.23323 -28.98577,-0.0288 -33.84425,-1.11866 z M 65.5,279.9021 c -15.898223,-2.2629 -25.734443,-8.06583 -28.324328,-16.71009 -1.841255,-6.14557 -1.439691,-24.95883 0.62236,-29.15747 3.221843,-6.56016 11.936326,-6.3079 14.750337,0.42698 0.840632,2.01192 1.457836,6.74977 1.466373,11.25636 0.01714,9.05089 1.175772,11.90075 5.987499,14.72738 3.167113,1.8605 5.470864,2.08679 24.37035,2.39378 23.327649,0.37892 27.374449,-0.37284 32.074309,-5.95831 C 121.49143,250.88566 122,246.56749 122,209.73067 v -33.90633 l -30.25,0.34789 C 54.364417,176.60219 54,176.71653 54,188.01669 c 0,6.10019 1.280602,9.52793 4.129195,11.05245 1.223712,0.65491 7.97553,1.51075 15.004042,1.90187 14.892526,0.82873 18.330704,2.39198 22.057536,10.02899 1.91918,3.93277 2.203121,6.20168 2.252606,18 0.06273,14.95725 -0.974134,18.75929 -5.555271,20.37039 C 84.546839,251.95218 80.017287,246.4819 79.988996,235 c -0.03223,-13.07924 -2.14127,-14.7667 -19.837959,-15.87251 -14.178462,-0.88596 -16.996212,-2.36333 -20.940804,-10.97946 -3.099926,-6.77113 -4.259881,-22.32741 -2.210607,-29.6467 1.725202,-6.16181 7.71464,-12.70193 14.179268,-15.48294 9.914842,-4.26525 17.781796,-4.94624 57.571106,-4.9835 L 146,158 v -10 -10 l -36.75,-0.0351 C 82.334004,137.93914 70.894448,137.57178 66.5,136.59204 49.437071,132.78784 41.018082,124.38048 37.367738,107.5 35.747171,100.00593 35.581521,68.593519 37.110352,58.691553 c 2.035025,-13.1805 6.645272,-18.090355 11.795581,-12.562147 3.236259,3.473716 4.349856,11.123115 5.003659,34.370594 0.584517,20.78386 0.756134,22.27522 3.104563,26.97876 3.067031,6.14278 8.471081,9.19807 18.801112,10.62959 11.053451,1.53177 160.549403,0.61868 165.818743,-1.01279 5.41198,-1.67563 11.22814,-6.54871 13.15359,-11.02077 1.14381,-2.65663 1.7268,-9.353754 2.26984,-26.07479 0.40189,-12.375 1.2128,-24.017713 1.80202,-25.872695 3.32897,-10.480288 9.69688,-11.030869 13.03817,-1.127305 1.79355,5.316038 3.32242,28.247422 2.63353,39.5 -1.42448,23.26806 -6.35436,33.82955 -18.71453,40.09292 -9.67828,4.90436 -14.45486,5.37638 -54.56663,5.3923 L 164,138 v 9.93014 9.93013 l 40.75,0.35346 c 35.94175,0.31175 41.55951,0.5736 47.6106,2.21922 9.72285,2.64416 15.43827,6.77968 18.98386,13.7362 2.60865,5.11821 2.88437,6.60233 2.83719,15.27156 -0.0626,11.50631 -2.07786,19.23255 -6.25827,23.99378 -3.87784,4.41661 -6.89535,5.27284 -20.8546,5.91761 -15.89404,0.73413 -16.31827,1.09351 -17.36395,14.70983 -0.88221,11.48753 -1.9784,14.678 -5.77412,16.80551 -3.59663,2.0159 -7.57826,0.75869 -9.95799,-3.14428 -1.69774,-2.78443 -1.96499,-5.06076 -1.96341,-16.72316 0.002,-15.45177 0.88506,-19.67116 5.12751,-24.50305 3.73281,-4.25143 7.89086,-5.47151 18.86318,-5.53492 9.97361,-0.0576 16.64371,-1.17717 18.58605,-3.11951 1.78148,-1.78147 2.86453,-9.62716 1.97992,-14.34256 -1.22571,-6.53358 -3.31524,-6.92133 -39.40501,-7.3124 l -31.33904,-0.3396 0.41626,34.82602 c 0.46196,38.64999 0.84222,41.18615 7.05237,47.03505 C 198.27613,262.4046 201.51811,263 222.1,263 c 20.4702,0 27.62316,-0.99764 31.58469,-4.4052 2.36509,-2.03437 2.63196,-3.0837 3.25113,-12.78374 0.74043,-11.59966 2.16194,-15.11681 6.55539,-16.2195 1.46241,-0.36704 3.78753,-0.0878 5.29831,0.63629 4.40666,2.11206 5.56869,5.97746 5.64336,18.77215 0.0604,10.34282 -0.18444,12.00312 -2.43288,16.5 -5.25683,10.51366 -16.20018,14.43857 -42.52579,15.25218 -27.66892,0.85512 -40.87613,-2.11219 -50.07042,-11.24953 C 169.5165,259.67662 168.04723,251.70654 168.01981,207.75 L 168,176 H 155.5 143 l -0.0356,34.75 c -0.026,25.35329 -0.39472,36.23725 -1.36358,40.25 -4.1904,17.35531 -14.95753,26.53983 -34.01756,29.01748 -8.639428,1.12306 -33.868409,1.05389 -42.08324,-0.11538 z m 251,0.0773 c -13.12389,-1.40428 -20.0892,-4.575 -19.31148,-8.79091 0.48443,-2.62605 8.52256,-5.97281 17.13384,-7.13385 C 318.86219,263.44258 341.62735,263 368.57236,263 H 415 V 162 61 h -4.95295 c -6.35391,0 -9.94358,-1.656639 -10.66397,-4.921439 C 399.07015,54.660352 398.64483,52.825 398.43793,52 c -0.65924,-2.628641 1.31957,-9.100447 3.22371,-10.543341 1.50641,-1.141515 9.92922,-1.398795 46.64681,-1.424856 28.13799,-0.01997 47.48398,0.382853 52,1.082748 18.59472,2.88182 27.45874,10.520707 32.35775,27.885449 1.71265,6.070584 1.8338,12.082414 1.8338,91 0,66.86189 -0.27843,85.71327 -1.33387,90.31248 -4.13594,18.02281 -14.30213,26.9838 -33.66613,29.67504 -8.18095,1.13699 -172.36623,1.12974 -183,-0.008 z m 186.68266,-20.27 c 6.6969,-3.28867 11.28839,-9.36162 12.52137,-16.56144 C 516.14181,240.59158 516.5,203.175 516.5,160 c 0,-75.779277 -0.0687,-78.685148 -1.98062,-83.841993 -1.19974,-3.235847 -3.44326,-6.663392 -5.69042,-8.693564 C 502.29382,61.560333 498.39235,61 463.8185,61 H 433 V 162.06271 263.12543 L 465.25,262.81271 497.5,262.5 Z m -33.70335,-10.10063 c -4.92234,-7.51245 -4.9112,-7.33461 -5.26727,-84.10877 -0.34677,-74.767376 0.0142,-83.599223 3.76648,-92.150844 3.05849,-6.970486 8.4407,-6.757167 11.32397,0.448814 0.84864,2.120974 2.02776,7.341664 2.62025,11.601533 1.40262,10.084475 1.43194,140.350987 0.0338,150.100497 -1.35097,9.42044 -4.586,15.89946 -8.14391,16.31038 -1.97087,0.22763 -3.12623,-0.35937 -4.33331,-2.20161 z m -144.65497,-6.15202 c -15.8479,-3.84388 -23.53113,-11.63143 -27.3167,-27.68759 -2.1812,-9.25138 -2.19067,-136.246982 -0.0109,-145.491773 3.17061,-13.446814 9.97147,-22.265621 20.18482,-26.174047 8.94868,-3.424466 22.51107,-4.736268 33.98469,-3.28712 21.33188,2.694272 31.29947,11.852037 34.90581,32.069851 1.76863,9.915325 2.0344,127.317419 0.31335,138.422379 -2.8959,18.68554 -11.16368,28.18828 -27.97208,32.15027 -7.97316,1.87938 -26.33679,1.87832 -34.08903,-0.002 z m 38.1835,-22.2293 c 5.81485,-5.81484 6.26304,-8.44197 6.73499,-39.47745 L 370.16481,154 H 342.08241 314 l 0.008,23.75 c 0.008,25.31794 0.89528,34.17904 4.03924,40.34171 3.19474,6.26221 5.17989,6.82282 24.32086,6.86825 l 16.86764,0.04 3.77255,-3.77255 z M 369.97916,108.75 c -0.0273,-34.359828 -1.36666,-40.966806 -9.28349,-45.794003 -2.80024,-1.707409 -5.09495,-1.948983 -18.54454,-1.952259 -17.61348,-0.0043 -20.56986,0.838047 -23.93104,6.818455 -3.31144,5.891919 -4.20441,14.779741 -4.21254,41.927807 L 314,135 h 28 28 l -0.0208,-26.25 z M 109,103.34027 C 93.89362,100.99962 83.960902,94.488275 81.14143,85.077716 80.497319,82.927864 80,74.456265 80,65.63398 80,51.333333 80.170569,49.829431 82,48 c 1.376582,-1.376582 3.333333,-2 6.277494,-2 5.005446,0 8.239831,1.940736 9.127295,5.476671 L 98.038104,54 H 155.01905 212 v -4.024751 c 0,-3.466265 0.3816,-4.172261 2.75,-5.087787 1.5125,-0.58467 4.96304,-0.85733 7.66787,-0.605911 7.63379,0.709574 7.85205,1.334994 7.32532,20.990817 -0.43219,16.127917 -0.56163,16.992443 -3.36882,22.5 -4.50162,8.831952 -11.42694,12.866512 -26.2547,15.295472 -5.2897,0.86652 -85.73324,1.10703 -91.11967,0.27243 z m 97.18908,-20.007093 c 3.96282,-1.831217 4.79131,-2.71175 5.34912,-5.685115 0.36302,-1.93506 0.36388,-3.99749 0.002,-4.583177 C 211.08719,72.332057 193.28231,72 154.44098,72 H 98 l 0.01531,3.75 c 0.01774,4.345292 0.626816,5.498674 3.78123,7.160386 4.8605,2.560465 12.08689,2.921524 55.20346,2.758189 43.34976,-0.164218 44.6212,-0.224583 49.18908,-2.335398 z"
         id="path323" />
    </g>
  </g>
</svg>
